# xmcd
#
# Track frame offsets: 
#        150
#        17970
#        35785
#        50467
#        71352
#
# Disc length: 1154 seconds
#
# Revision: 0
# Processed by: cddbd v1.5.2PL0 Copyright (c) Steve Scherf et al.
# Submitted via: ExactAudioCopy v0.95b4
#
DISCID=40048005
DTITLE=Various Artist - Face Of 2000
DYEAR=2000
DGENRE=Country
TTITLE0=Jennifer Day - The Fun Of Your Love
TTITLE1=John Rich - I Pray For You
TTITLE2=The Warren Brothers - The Enemy
TTITLE3=Alabama - God Must Have Spent A Little More Time On You
TTITLE4=Jennifer Day - Gone By Dawn
EXTD=
EXTT0=
EXTT1=
EXTT2=
EXTT3=
EXTT4=
PLAYORDER=
